# xmcd
# 
# Track frame offsets:
#     150
#     18204
#     34963
#     52008
#     73540
#     91268
#     101034
#     121780
#     137045
#     151860
# 
# Disc length: 2301
# 
# Revision: 0
# Processed by: cddbd v1.5.2PL0 Copyright (c) Steve Scherf et al.
# Submitted via: fre:ac v1.0.31
# 
DISCID=7c08fb0a
DTITLE=Joe Rollin Porter - Joe Porter
DYEAR=0
DGENRE=Blues
TTITLE0=Black Jack Davey
TTITLE1=Bye Bye Baby
TTITLE2=The Cuckoo
TTITLE3=Henry Lee
TTITLE4=Cumberland Gap
TTITLE5=Green Sleeves
TTITLE6=Troubles
TTITLE7=Have You Ever Seen the Devil Uncle Joe
TTITLE8=Birdie
TTITLE9=Death
EXTD=
EXTT0=
EXTT1=
EXTT2=
EXTT3=
EXTT4=
EXTT5=
EXTT6=
EXTT7=
EXTT8=
EXTT9=
PLAYORDER=
